<svg width="143" height="30" viewBox="0 0 143 30" fill="none" xmlns="http://www.w3.org/2000/svg">
<path d="M22.5977 29H0.917969L12.8711 6.59766H0.917969V0.992188H22.5977L10.6836 23.3945H22.5977V29ZM45.2734 29H26.0742V0.992188H45.2734V6.59766H31.6797V12.2031H40.8789V17.8086H31.6797V23.3945H45.2734V29ZM68.8086 29H49.1992V0.992188H54.8047V23.3945H68.8086V29ZM77.3438 29H71.7383V0.992188H77.3438V29ZM110.352 29H104.766V9C104.766 8.60938 104.688 8.24479 104.531 7.90625C104.388 7.56771 104.186 7.27474 103.926 7.02734C103.678 6.76693 103.385 6.5651 103.047 6.42188C102.708 6.27865 102.344 6.20703 101.953 6.20703C101.562 6.20703 101.198 6.27865 100.859 6.42188C100.521 6.5651 100.221 6.76693 99.9609 7.02734C99.7135 7.27474 99.5182 7.56771 99.375 7.90625C99.2318 8.24479 99.1602 8.60938 99.1602 9V29H93.5547V9C93.5547 8.60938 93.4831 8.24479 93.3398 7.90625C93.1966 7.56771 92.9948 7.27474 92.7344 7.02734C92.487 6.76693 92.194 6.5651 91.8555 6.42188C91.5169 6.27865 91.1523 6.20703 90.7617 6.20703C90.3711 6.20703 90.0065 6.27865 89.668 6.42188C89.3294 6.5651 89.0299 6.76693 88.7695 7.02734C88.5221 7.27474 88.3268 7.56771 88.1836 7.90625C88.0404 8.24479 87.9688 8.60938 87.9688 9V29H82.3633V9C82.3633 7.84115 82.5781 6.75391 83.0078 5.73828C83.4505 4.70964 84.0495 3.81771 84.8047 3.0625C85.5729 2.29427 86.4648 1.69531 87.4805 1.26562C88.5091 0.822917 89.6029 0.601562 90.7617 0.601562C91.8034 0.601562 92.806 0.790365 93.7695 1.16797C94.7331 1.53255 95.599 2.06641 96.3672 2.76953C97.1354 2.06641 97.9948 1.53255 98.9453 1.16797C99.9089 0.790365 100.911 0.601562 101.953 0.601562C103.112 0.601562 104.199 0.822917 105.215 1.26562C106.243 1.69531 107.135 2.29427 107.891 3.0625C108.659 3.81771 109.258 4.70964 109.688 5.73828C110.13 6.75391 110.352 7.84115 110.352 9V29ZM142.812 15.1133C142.812 16.4414 142.637 17.724 142.285 18.9609C141.947 20.1849 141.465 21.3372 140.84 22.418C140.215 23.4857 139.46 24.4622 138.574 25.3477C137.689 26.2331 136.712 26.9948 135.645 27.6328C134.577 28.2578 133.424 28.7396 132.188 29.0781C130.951 29.4297 129.668 29.6055 128.34 29.6055C127.012 29.6055 125.729 29.4297 124.492 29.0781C123.268 28.7396 122.116 28.2578 121.035 27.6328C119.967 26.9948 118.991 26.2331 118.105 25.3477C117.22 24.4622 116.458 23.4857 115.82 22.418C115.195 21.3372 114.707 20.1849 114.355 18.9609C114.017 17.724 113.848 16.4414 113.848 15.1133C113.848 13.7852 114.017 12.5026 114.355 11.2656C114.707 10.0286 115.195 8.8763 115.82 7.80859C116.458 6.74089 117.22 5.76432 118.105 4.87891C118.991 3.99349 119.967 3.23828 121.035 2.61328C122.116 1.98828 123.268 1.50651 124.492 1.16797C125.729 0.816406 127.012 0.640625 128.34 0.640625C129.668 0.640625 130.951 0.816406 132.188 1.16797C133.424 1.50651 134.577 1.98828 135.645 2.61328C136.712 3.23828 137.689 3.99349 138.574 4.87891C139.46 5.76432 140.215 6.74089 140.84 7.80859C141.465 8.8763 141.947 10.0286 142.285 11.2656C142.637 12.5026 142.812 13.7852 142.812 15.1133ZM137.246 15.1133C137.246 13.8893 137.012 12.737 136.543 11.6562C136.074 10.5625 135.436 9.61849 134.629 8.82422C133.835 8.01693 132.891 7.37891 131.797 6.91016C130.716 6.44141 129.564 6.20703 128.34 6.20703C127.103 6.20703 125.944 6.44141 124.863 6.91016C123.783 7.37891 122.839 8.01693 122.031 8.82422C121.224 9.61849 120.586 10.5625 120.117 11.6562C119.648 12.737 119.414 13.8893 119.414 15.1133C119.414 16.3372 119.648 17.4896 120.117 18.5703C120.586 19.638 121.224 20.5755 122.031 21.3828C122.839 22.1901 123.783 22.8281 124.863 23.2969C125.944 23.7656 127.103 24 128.34 24C129.564 24 130.716 23.7656 131.797 23.2969C132.891 22.8281 133.835 22.1901 134.629 21.3828C135.436 20.5755 136.074 19.638 136.543 18.5703C137.012 17.4896 137.246 16.3372 137.246 15.1133Z" fill="url(#paint0_linear_6_15)"/>
<defs>
<linearGradient id="paint0_linear_6_15" x1="129.913" y1="34.3488" x2="-2.30014" y2="-2.81768" gradientUnits="userSpaceOnUse">
<stop stop-color="#F97316"/>
<stop offset="1" stop-color="#9A1212"/>
</linearGradient>
</defs>
</svg>
